<svg width="33" height="33" xmlns="http://www.w3.org/2000/svg" xmlns:xlink="http://www.w3.org/1999/xlink" xml:space="preserve" overflow="hidden"><g><g><path d="M16.4656 5.80731C17.0294 5.81322 17.4985 5.37536 17.5312 4.8125 17.5312 4.22813 17.0844 2.75 16.5 2.75 15.9156 2.75 16.6375 3.4375 15.8125 4.125L15.7437 4.19375C15.5713 4.35366 15.4719 4.57731 15.4688 4.8125 15.5058 5.34658 15.9315 5.77132 16.4656 5.80731ZM16.2302 4.67878 16.2786 4.63031C16.4475 4.489 16.5913 4.32011 16.7038 4.13084 16.7044 4.12923 16.7062 4.12837 16.7078 4.12895 16.7087 4.12926 16.7094 4.12995 16.7097 4.13084 16.7823 4.34366 16.8273 4.5649 16.8438 4.78912 16.8257 4.97334 16.673 5.11514 16.488 5.11947 16.3168 5.09651 16.1815 4.96303 16.1562 4.79222 16.1682 4.7476 16.194 4.70793 16.2298 4.67878Z" fill="#FFFFFF" fill-rule="nonzero" fill-opacity="1"/><path d="M19.9031 7.52606C20.4668 7.5318 20.9358 7.094 20.9688 6.53125 20.9688 5.94687 20.5219 4.46875 19.9375 4.46875 19.3531 4.46875 20.075 5.15625 19.25 5.84375L19.1812 5.9125C19.0088 6.07241 18.9094 6.29606 18.9062 6.53125 18.9432 7.0654 19.3689 7.49021 19.9031 7.52606ZM19.6677 6.39787 19.7161 6.34906C19.8849 6.20764 20.0287 6.03879 20.1413 5.84959 20.1419 5.84798 20.1437 5.84712 20.1453 5.8477 20.1462 5.84801 20.1469 5.8487 20.1472 5.84959 20.2198 6.06241 20.2649 6.28361 20.2812 6.50787 20.2629 6.69195 20.1104 6.83358 19.9255 6.83822 19.7552 6.81426 19.6212 6.68102 19.5962 6.51097 19.6076 6.46666 19.6328 6.42709 19.668 6.39787Z" fill="#FFFFFF" fill-rule="nonzero" fill-opacity="1"/><path d="M13.0281 7.52606C13.5919 7.53197 14.061 7.09411 14.0938 6.53125 14.0938 5.94687 13.6469 4.46875 13.0625 4.46875 12.4781 4.46875 13.2 5.15625 12.375 5.84375L12.3062 5.9125C12.1338 6.07241 12.0344 6.29606 12.0312 6.53125 12.0683 7.06533 12.494 7.49007 13.0281 7.52606ZM12.7927 6.39753 12.8411 6.34906C13.01 6.20775 13.1538 6.03886 13.2663 5.84959 13.2669 5.84798 13.2687 5.84712 13.2703 5.8477 13.2712 5.84801 13.2719 5.8487 13.2722 5.84959 13.3448 6.06241 13.3898 6.28365 13.4062 6.50787 13.3882 6.69209 13.2355 6.83389 13.0505 6.83822 12.8793 6.81526 12.744 6.68178 12.7188 6.51097 12.7307 6.46635 12.7565 6.42668 12.7923 6.39753Z" fill="#FFFFFF" fill-rule="nonzero" fill-opacity="1"/><path d="M26.675 27.1562 26.4688 27.1562 26.4688 15.3577C26.4688 14.112 24.0807 13.2763 20.9729 12.8779L20.9729 8.32356 20.8515 8.22044C20.3124 7.81364 19.5688 7.81364 19.0297 8.22044L18.9087 8.32356 18.9087 12.6844C18.4552 12.6555 17.9957 12.6349 17.5337 12.6228L17.5337 6.60481 17.4123 6.50169C16.8731 6.09489 16.1296 6.09489 15.5904 6.50169L15.4694 6.60481 15.4694 12.6204C15.0071 12.6325 14.5475 12.6531 14.0944 12.6816L14.0944 8.32356 13.9731 8.22044C13.4339 7.81364 12.6904 7.81364 12.1512 8.22044L12.0302 8.32356 12.0302 12.8769C8.92306 13.2749 6.53125 14.1109 6.53125 15.3577L6.53125 27.1562 6.325 27.1562C5.67951 27.1562 5.15625 27.6795 5.15625 28.325L5.15625 28.3937C5.15625 29.0392 5.67951 29.5625 6.325 29.5625L26.675 29.5625C27.3205 29.5625 27.8438 29.0392 27.8438 28.3937L27.8438 28.325C27.8438 27.6795 27.3205 27.1562 26.675 27.1562ZM19.5979 8.66731C19.8173 8.57251 20.066 8.57251 20.2854 8.66731L20.2854 12.7985C20.0587 12.7756 19.8296 12.7541 19.5979 12.7339ZM16.1604 12.6077 16.1604 6.94856C16.3798 6.85376 16.6285 6.85376 16.8479 6.94856L16.8479 12.6077ZM12.7229 8.66731C12.9423 8.57251 13.191 8.57251 13.4104 8.66731L13.4104 12.7332C13.1787 12.7524 12.9495 12.7739 12.7229 12.7975ZM12.0354 13.5688 12.0354 13.5709 13.86 13.3856C14.6774 13.3279 15.5585 13.2952 16.5007 13.2952 17.4653 13.2952 18.3655 13.3296 19.1988 13.3901L20.5635 13.5187C23.8662 13.9064 25.7812 14.7238 25.7812 15.3577L25.7812 20.9344C25.7249 20.9388 25.6716 20.9454 25.6094 20.9454 25.2104 20.9547 24.8208 20.823 24.5094 20.5734 23.6296 19.9235 22.4288 19.9235 21.549 20.5734 20.9006 21.0694 20.0002 21.0694 19.3518 20.5734 18.4722 19.9235 17.2716 19.9235 16.3921 20.5734 15.7439 21.0694 14.8437 21.0694 14.1955 20.5734 13.3164 19.9235 12.116 19.9235 11.2368 20.5734 10.5887 21.0693 9.68873 21.0693 9.04062 20.5734 8.61702 20.2488 8.0961 20.0771 7.5625 20.086 7.44824 20.0863 7.33415 20.0938 7.22081 20.1083L7.22081 15.3577C7.21875 14.75 8.97909 13.9734 12.0347 13.5688ZM7.21875 20.8007C7.33157 20.7811 7.4459 20.7714 7.56044 20.7718 7.95874 20.7629 8.34745 20.8946 8.65837 21.1437 9.53752 21.7937 10.7379 21.7937 11.617 21.1437 12.2651 20.6478 13.1651 20.6478 13.8132 21.1437 14.6925 21.7936 15.893 21.7936 16.7722 21.1437 17.4207 20.6478 18.3211 20.6478 18.9695 21.1437 19.849 21.7936 21.0497 21.7936 21.9292 21.1437 22.5778 20.6479 23.4782 20.6479 24.1268 21.1437 24.5517 21.469 25.0743 21.6409 25.6094 21.6312 25.6709 21.6312 25.7262 21.6267 25.7812 21.6232L25.7812 27.1562 7.21875 27.1562ZM27.1562 28.3937C27.1562 28.6595 26.9408 28.875 26.675 28.875L6.325 28.875C6.05921 28.875 5.84375 28.6595 5.84375 28.3937L5.84375 28.325C5.84375 28.0592 6.05921 27.8438 6.325 27.8438L26.675 27.8438C26.9408 27.8438 27.1562 28.0592 27.1562 28.325Z" fill="#FFFFFF" fill-rule="nonzero" fill-opacity="1"/></g></g></svg>