<svg width="33" height="33" xmlns="http://www.w3.org/2000/svg" xmlns:xlink="http://www.w3.org/1999/xlink" xml:space="preserve" overflow="hidden"><g><g><path d="M29.7619 4.18894C29.6557 4.11311 29.5157 4.10393 29.4006 4.16522L3.33437 18.0678C3.16681 18.1571 3.10331 18.3653 3.19254 18.5328 3.23338 18.6095 3.30174 18.6679 3.38387 18.6962L11.3527 21.4541 11.4967 21.5016 13.7655 28.6354C13.8018 28.7498 13.8953 28.837 14.0119 28.8654 14.0387 28.8717 14.0662 28.8749 14.0938 28.875 14.1849 28.875 14.2723 28.8387 14.3368 28.7743L19.0592 24.0522 26.0129 26.4498C26.109 26.4836 26.2151 26.4725 26.302 26.4196 26.3891 26.3673 26.4486 26.2793 26.4646 26.179L29.9021 4.52272C29.9225 4.39385 29.8682 4.26456 29.7619 4.18894ZM4.35875 18.3002 27.0576 6.19438C27.0591 6.19324 27.0613 6.19355 27.0624 6.19506 27.0635 6.19657 27.0632 6.19874 27.0617 6.19987L11.6476 20.8237 4.36013 18.3067C4.35817 18.306 4.35717 18.3039 4.35786 18.3019 4.3581 18.3013 4.35854 18.3007 4.35909 18.3002ZM12.1516 21.2933 27.2848 6.93584C27.2862 6.93443 27.2884 6.93433 27.2898 6.93567 27.2912 6.93701 27.2913 6.93925 27.29 6.94066L15.4615 22.3324C15.4352 22.3659 15.4159 22.4044 15.4048 22.4455L14.0666 27.2924C14.0666 27.2943 14.065 27.2958 14.0632 27.2958 14.0613 27.2958 14.0597 27.2943 14.0597 27.2924ZM14.7568 27.3725 15.9679 22.9862 18.336 23.8026 14.761 27.3759C14.7591 27.3763 14.7573 27.3751 14.7569 27.3732 14.7569 27.373 14.7568 27.3727 14.7568 27.3725ZM25.8459 25.6651 16.2975 22.3726 28.9871 5.86059C28.9877 5.85898 28.9896 5.85822 28.9912 5.85888 28.9928 5.85953 28.9936 5.86138 28.9929 5.863L25.85 25.6623C25.8497 25.6642 25.8479 25.6654 25.846 25.6651 25.846 25.6651 25.8459 25.6651 25.8459 25.6651Z" fill="#FFFFFF" fill-rule="nonzero" fill-opacity="1"/></g></g></svg>