<svg width="33" height="33" xmlns="http://www.w3.org/2000/svg" xmlns:xlink="http://www.w3.org/1999/xlink" xml:space="preserve" overflow="hidden"><g><g><path d="M14.6008 4.93969 6.9905 23.3344 6.72753 23.9697 7.36278 24.2327 17.5093 28.4302 18.1445 28.6932 18.4075 28.0579 26.0178 9.66281 26.2804 9.02756 25.6437 8.76562 15.4987 4.56706 14.8634 4.30409ZM25.3822 9.40019 17.7719 27.7949 7.62575 23.5974 15.236 5.20231Z" fill="#FFFFFF" fill-rule="nonzero" fill-opacity="1"/><path d="M28.5422 6.25006 15.2247 0.740438C15.1423 0.705877 15.0538 0.687889 14.9645 0.6875 14.6862 0.686898 14.435 0.854078 14.3282 1.111L4.09372 25.85C3.94955 26.2002 4.11568 26.601 4.46531 26.7465L17.7829 32.2568C17.8655 32.2909 17.954 32.3084 18.0434 32.3084 18.3216 32.3088 18.5727 32.1415 18.6794 31.8845L28.9138 7.14691C29.0583 6.79662 28.8921 6.39554 28.5422 6.25006ZM18.0469 31.6212 4.72897 26.1133 14.9645 1.375 28.2786 6.88394Z" fill="#FFFFFF" fill-rule="nonzero" fill-opacity="1"/><path d="M19.6969 5.19063 22.55 6.37141C22.7267 6.44088 22.9262 6.35398 22.9957 6.17732 23.0635 6.00497 22.9825 5.80986 22.8126 5.73616L19.9595 4.55538C19.7828 4.4859 19.5833 4.5728 19.5138 4.74946 19.446 4.92181 19.527 5.11693 19.6969 5.19063Z" fill="#FFFFFF" fill-rule="nonzero" fill-opacity="1"/><path d="M27.0755 18.8069 28.9998 17.5144 28.502 15.0164 27.8279 15.1504 28.2363 17.1992 26.3117 18.4917 26.7651 20.7653 24.8407 22.0578 25.2938 24.3313 23.5596 25.4963 23.9429 26.0669 26.0576 24.6465 25.6042 22.373 27.5285 21.0805 27.0755 18.8069Z" fill="#FFFFFF" fill-rule="nonzero" fill-opacity="1"/><path d="M4.39484 18.0025 5.06928 17.8681 4.66091 15.8197 6.58488 14.5269 6.13181 12.2537 8.05613 10.9608 7.60306 8.68759 9.33728 7.52263 8.95366 6.952 6.83925 8.37238 7.29231 10.6456 5.36834 11.9384 5.82141 14.2117 3.89709 15.5045 4.39484 18.0025Z" fill="#FFFFFF" fill-rule="nonzero" fill-opacity="1"/></g></g></svg>