<svg width="32" height="32" xmlns="http://www.w3.org/2000/svg" xmlns:xlink="http://www.w3.org/1999/xlink" xml:space="preserve" overflow="hidden"><defs><clipPath id="clip0"><rect x="0" y="0" width="31" height="31"/></clipPath><clipPath id="clip1"><rect x="0" y="0" width="31" height="31"/></clipPath><clipPath id="clip2"><rect x="0" y="0" width="31" height="31"/></clipPath></defs><g><g><g clip-path="url(#clip0)"><g clip-path="url(#clip1)"><g clip-path="url(#clip2)"><path d="M11.227 17.4643C14.1844 17.4643 16.5821 15.0916 16.5821 12.1642 16.5821 9.23734 14.1844 6.86424 11.227 6.86424 8.26924 6.86424 5.87178 9.23734 5.87178 12.1642 5.87178 15.0916 8.26924 17.4643 11.227 17.4643Z" fill="#FFFFFF" fill-rule="nonzero" fill-opacity="1"/><path d="M21.4964 30.4631 17.9258 21.0255C17.8351 20.786 17.067 19.2049 15.6408 19.2049 15.1898 19.2049 7.36604 19.2168 7.11001 19.2168 7.11001 19.2168 7.06825 19.2168 6.81439 19.2168 5.218 19.2168 4.62041 20.786 4.52985 21.0255L0.959055 30.4631C0.868317 30.7026 0.920951 31 1.42345 31 1.42345 31 3.35078 31 4.05841 31 4.53855 31 4.68801 30.5798 4.68801 30.5798L6.39037 26.012C6.39037 26.012 6.60438 25.4271 6.60438 26.0615 6.60438 26.9335 6.61569 29.2632 6.62143 30.3826 6.62335 30.7601 6.68189 31 7.12767 31 9.43683 31 13.6478 31 15.8213 31 16.4386 31 16.3633 30.6787 16.362 30.194 16.3586 29.0125 16.3529 26.8602 16.3529 26.0272 16.3529 25.5985 16.5048 25.891 16.5048 25.891L18.1037 30.5084C18.1037 30.5084 18.2562 30.9999 18.8221 30.9999 19.4235 30.9999 21.0055 30.9999 21.0055 30.9999 21.5249 31 21.5872 30.7026 21.4964 30.4631ZM13.3294 27.7565 11.5326 29.4089C11.3645 29.5634 11.0893 29.5634 10.9213 29.4089L9.12442 27.7565C8.95617 27.6021 8.85708 27.2926 8.9038 27.0693L9.84076 22.595C9.85476 22.5281 9.89713 22.3256 9.89348 22.2797 9.87512 22.0437 9.81988 21.336 9.81988 21.336 9.80196 21.1084 9.9743 20.922 10.2026 20.922L12.251 20.922C12.4793 20.922 12.6516 21.1084 12.6337 21.336 12.6337 21.336 12.5785 22.0437 12.5601 22.2797 12.5565 22.3254 12.5989 22.5281 12.6129 22.595L13.5498 27.0693C13.5969 27.2926 13.4976 27.602 13.3294 27.7565Z" fill="#FFFFFF" fill-rule="nonzero" fill-opacity="1"/><path d="M29.2929 1.42742e-15 17.8326 1.42742e-15C17.4011 1.42742e-15 17.048 0.353121 17.048 0.784626L17.048 7.84539C17.048 8.2769 17.4011 8.62993 17.8326 8.62993L19.8714 8.62993C20.3029 8.62993 20.5886 8.97644 20.5062 9.40003L20.1263 11.3549C20.044 11.7785 20.2422 11.8924 20.5667 11.608L23.3751 9.14695C23.6996 8.86256 24.3182 8.62993 24.7497 8.62993L29.2929 8.62993C29.7244 8.62993 30.0774 8.2769 30.0774 7.84539L30.0774 0.784626C30.0774 0.353121 29.7244 1.42742e-15 29.2929 1.42742e-15ZM19.4047 2.60025C19.4047 2.41182 19.5588 2.25766 19.7474 2.25766L25.809 2.25766C25.9975 2.25766 26.1517 2.41182 26.1517 2.60025L26.1517 2.89561C26.1517 3.08413 25.9975 3.23829 25.809 3.23829L19.7474 3.23829C19.5588 3.23829 19.4047 3.08413 19.4047 2.89561L19.4047 2.60025ZM27.7207 5.56294C27.7207 5.75137 27.5666 5.90562 27.3781 5.90562L19.7474 5.90562C19.5588 5.90562 19.4047 5.75146 19.4047 5.56294L19.4047 5.26758C19.4047 5.07915 19.5588 4.9249 19.7474 4.9249L27.3781 4.9249C27.5666 4.9249 27.7207 5.07915 27.7207 5.26758L27.7207 5.56294Z" fill="#FFFFFF" fill-rule="nonzero" fill-opacity="1"/></g></g></g></g></g></svg>