<svg width="33" height="33" xmlns="http://www.w3.org/2000/svg" xmlns:xlink="http://www.w3.org/1999/xlink" xml:space="preserve" overflow="hidden"><g><g><path d="M12.132 14.5382 8.45144 18.2188 12.132 21.8993 12.618 21.4132 9.42356 18.2188 12.618 15.0243 12.132 14.5382Z" fill="#FFFFFF" fill-rule="nonzero" fill-opacity="1"/><path d="M20.382 15.0243 23.5764 18.2188 20.382 21.4132 20.868 21.8993 24.5486 18.2188 20.868 14.5382 20.382 15.0243Z" fill="#FFFFFF" fill-rule="nonzero" fill-opacity="1"/><path d="M14.466 22.2067 17.9034 14.3003 18.5339 14.5745 15.0965 22.4808Z" fill="#FFFFFF" fill-rule="nonzero" fill-opacity="1"/><path d="M2.75 27.1562 30.25 27.1562 30.25 5.84375 2.75 5.84375ZM3.4375 26.4688 3.4375 11.3438 29.5625 11.3438 29.5625 26.4688ZM29.5625 6.53125 29.5625 10.6562 3.4375 10.6562 3.4375 6.53125Z" fill="#FFFFFF" fill-rule="nonzero" fill-opacity="1"/><path d="M22.3438 8.59375C22.3438 8.97345 22.0359 9.28125 21.6562 9.28125 21.2766 9.28125 20.9688 8.97345 20.9688 8.59375 20.9688 8.21405 21.2766 7.90625 21.6562 7.90625 22.0359 7.90625 22.3438 8.21405 22.3438 8.59375Z" fill="#FFFFFF" fill-rule="nonzero" fill-opacity="1"/><path d="M24.75 8.59375C24.75 8.97345 24.4422 9.28125 24.0625 9.28125 23.6828 9.28125 23.375 8.97345 23.375 8.59375 23.375 8.21405 23.6828 7.90625 24.0625 7.90625 24.4422 7.90625 24.75 8.21405 24.75 8.59375Z" fill="#FFFFFF" fill-rule="nonzero" fill-opacity="1"/><path d="M27.1562 8.59375C27.1562 8.97345 26.8484 9.28125 26.4688 9.28125 26.0891 9.28125 25.7812 8.97345 25.7812 8.59375 25.7812 8.21405 26.0891 7.90625 26.4688 7.90625 26.8484 7.90625 27.1562 8.21405 27.1562 8.59375Z" fill="#FFFFFF" fill-rule="nonzero" fill-opacity="1"/></g></g></svg>