<?xml version="1.0" encoding="UTF-8" standalone="no"?>
<!-- Created with Inkscape (http://www.inkscape.org/) -->

<svg
   width="500"
   height="500"
   viewBox="0 0 132.29166 132.29167"
   version="1.1"
   id="svg1"
   xml:space="preserve"
   inkscape:version="1.4 (e7c3feb1, 2024-10-09)"
   sodipodi:docname="logo.svg"
   xmlns:inkscape="http://www.inkscape.org/namespaces/inkscape"
   xmlns:sodipodi="http://sodipodi.sourceforge.net/DTD/sodipodi-0.dtd"
   xmlns="http://www.w3.org/2000/svg"
   xmlns:svg="http://www.w3.org/2000/svg"><sodipodi:namedview
     id="namedview1"
     pagecolor="#ffffff"
     bordercolor="#000000"
     borderopacity="0.25"
     inkscape:showpageshadow="2"
     inkscape:pageopacity="0.0"
     inkscape:pagecheckerboard="0"
     inkscape:deskcolor="#d1d1d1"
     inkscape:document-units="mm"
     inkscape:zoom="0.57986637"
     inkscape:cx="319.03902"
     inkscape:cy="523.39645"
     inkscape:window-width="1656"
     inkscape:window-height="1144"
     inkscape:window-x="3229"
     inkscape:window-y="128"
     inkscape:window-maximized="0"
     inkscape:current-layer="layer1"
     showguides="false" /><defs
     id="defs1" /><g
     inkscape:label="Layer 1"
     inkscape:groupmode="layer"
     id="layer1"><g
       style="fill:#000000;stroke-width:1.00008;stroke-dasharray:none"
       id="g1"
       transform="matrix(4.8106061,0,0,4.8106061,8.4185601,8.4185601)"><path
         fill-rule="evenodd"
         d="M 12,23 C 5.9248677,23 1,18.075132 1,12 1,5.9248677 5.9248677,1 12,1 c 6.075132,0 11,4.9248677 11,11 0,6.075132 -4.924868,11 -11,11 z m 0,-2 c 4.970563,0 9,-4.029437 9,-9 0,-4.9705628 -4.029437,-9 -9,-9 -4.9705628,0 -9,4.0294372 -9,9 0,4.970563 4.0294372,9 9,9 z M 9.7071068,15.292893 8.2928932,16.707107 3.5857864,12 8.2928932,7.2928932 9.7071068,8.7071068 6.4142136,12 Z M 14.292893,8.7071068 15.707107,7.2928932 20.414214,12 15.707107,16.707107 14.292893,15.292893 17.585786,12 Z m -2.306499,9.4572922 -1.972788,-0.328798 2,-12 1.972788,0.328798 z"
         id="path1"
         style="stroke-width:1.00008;stroke-dasharray:none" /></g></g></svg>
